<svg height="496pt" viewBox="0 0 496 496" width="496pt" xmlns="http://www.w3.org/2000/svg"><path d="m488 248c0 132.546875-107.453125 240-240 240s-240-107.453125-240-240 107.453125-240 240-240 240 107.453125 240 240zm0 0" fill="#85d3c1"/><path d="m169.039062 474.640625c-14.320312 8.480469-31.117187 13.359375-49.039062 13.359375-53.039062 0-96-42.960938-96-96 0-13.839844 2.878906-26.960938 8.160156-38.878906 14.878906-33.601563 48.640625-57.121094 87.839844-57.121094 53.039062 0 96 42.960938 96 96 0 17.519531-4.640625 33.921875-12.800781 48-8.238281 14.238281-20.078125 26.160156-34.160157 34.640625zm0 0" fill="#f9d48a"/><path d="m40 104v-64h327.601562c2.878907 1.519531 5.679688 3.28125 8.398438 5.121094v58.878906zm0 0" fill="#f9d48a"/><path d="m120 264v-48h336v64h-336zm0 0" fill="#f9d48a"/><path d="m40 104v160h80v-32h-48v-96h80v80h224v-112zm0 0" fill="#f5f7fa"/><path d="m456 280v87.601562c-16.160156 28.320313-38.078125 52.957032-64 72.398438h-188.800781c8.160156-14.078125 12.800781-30.480469 12.800781-48 0-53.039062-42.960938-96-96-96v-16zm0 0" fill="#f5f7fa"/><path d="m416 360c0 26.507812-21.492188 48-48 48s-48-21.492188-48-48 21.492188-48 48-48 48 21.492188 48 48zm0 0" fill="#ff958a"/><path d="m152 168v48h-32v16h-48v-96h80zm0 0" fill="#ff958a"/><g fill="#232323"><path d="m248 0c-42.625 0-84.625 11.097656-121.664062 32h-94.335938v94.335938c-20.902344 37.03125-32 79.03125-32 121.664062 0 36.832031 7.96875 72.230469 23.535156 105.335938-4.816406 11.96875-7.535156 24.992187-7.535156 38.664062 0 57.34375 46.65625 104 104 104 18.054688 0 35.039062-4.640625 49.855469-12.769531 25.25 8.394531 51.496093 12.769531 78.144531 12.769531 136.753906 0 248-111.257812 248-248s-111.246094-248-248-248zm232 248c0 29.808594-5.710938 58.289062-16 84.496094v-124.496094h-80v-147.785156c58.113281 42.199218 96 110.632812 96 187.785156zm-432-136h320v96h-208v-80h-96v112h48v16h-64zm64 96v16h-32v-80h64v64zm16 16h320v48h-320zm120-208c29.808594 0 58.289062 5.710938 84.496094 16h-168.839844c26.785156-10.464844 55.390625-16 84.34375-16zm117.367188 32c.871093.511719 1.769531.992188 2.632812 1.511719v46.488281h-320v-48zm-349.367188 200c0-28.953125 5.535156-57.566406 16-84.351562v108.351562h80v16.40625c-33.03125 2.539062-61.777344 20.503906-78.992188 46.761719-11.253906-27.65625-17.007812-56.894531-17.007812-87.167969zm16 144c0-48.519531 39.480469-88 88-88s88 39.480469 88 88-39.480469 88-88 88-88-39.480469-88-88zm154.742188 79.648438c8.066406-6.769532 15.042968-14.761719 20.753906-23.648438h157.871094c-34.457032 20.304688-74.558594 32-117.367188 32-20.785156 0-41.304688-2.886719-61.257812-8.351562zm202.328124-39.648438h-173.09375c5.152344-12.320312 8.023438-25.832031 8.023438-40 0-54.648438-42.390625-99.480469-96-103.59375v-.40625h320v77.367188c-15.214844 25.824218-35.273438 48.449218-58.929688 66.632812zm0 0"/><path d="m96.234375 454.066406 32.03125-127.992187 15.515625 3.882812-32.035156 127.992188zm0 0"/><path d="m158.246094 347-12.492188 10 28.007813 35-28.007813 35 12.492188 10 35.992187-45zm0 0"/><path d="m81.753906 347-35.992187 45 35.992187 45 12.492188-10-28.007813-35 28.007813-35zm0 0"/><path d="m64 64h16v16h-16zm0 0"/><path d="m96 64h16v16h-16zm0 0"/><path d="m128 64h16v16h-16zm0 0"/><path d="m144 240h16v16h-16zm0 0"/><path d="m176 240h16v16h-16zm0 0"/><path d="m208 240h16v16h-16zm0 0"/><path d="m176 128h16v16h-16zm0 0"/><path d="m208 128h144v16h-144zm0 0"/><path d="m176 160h16v16h-16zm0 0"/><path d="m208 160h144v16h-144zm0 0"/><path d="m368 304c-30.871094 0-56 25.121094-56 56s25.128906 56 56 56 56-25.121094 56-56-25.128906-56-56-56zm0 96c-22.054688 0-40-17.945312-40-40s17.945312-40 40-40 40 17.945312 40 40-17.945312 40-40 40zm0 0"/><path d="m240 400h56v16h-56zm0 0"/><path d="m240 368h56v16h-56zm0 0"/><path d="m240 336h56v16h-56zm0 0"/><path d="m208 304h88v16h-88zm0 0"/></g></svg>