<svg fill="gray" id="Layer_1" enable-background="new 0 0 512 512" height="512" viewBox="0 0 512 512" width="512" xmlns="http://www.w3.org/2000/svg"><g><g><path d="m446.046 163.272-21.511-41.683c20.167-18.408 30.38-37.839 28.363-54.691-1.28-10.699-7.696-19.268-17.602-23.508-12.779-5.473-29.527-3.561-47.993 5.094-16.106-30.361-32.348-48.484-80.2-48.484h-102.206c-47.884 0-64.101 18.125-80.202 48.486-18.466-8.654-35.213-10.565-47.992-5.095-9.906 4.24-16.321 12.809-17.602 23.508-2.017 16.853 8.197 36.283 28.364 54.691l-21.511 41.683c-34.015 65.911-19.296 107.332 5.09 175.956l1.5 4.224c22.552 63.522 61.112 103.857 89.489 126.509 32.487 25.93 68.493 42.038 93.967 42.038s61.48-16.108 93.966-42.039c28.377-22.651 66.938-62.986 89.489-126.509l1.5-4.224c24.387-68.624 39.106-110.044 5.091-175.956zm-18.62-101.496c3.392 1.452 5.176 3.835 5.614 7.498.992 8.285-5.283 23.362-25.295 40.469l-26.271-35.088c22.046-14.387 38.281-16.163 45.952-12.879zm-348.466 7.498c.438-3.663 2.223-6.046 5.615-7.498 2.072-.887 4.767-1.404 8.035-1.404 8.829 0 21.825 3.782 37.917 14.283l-26.272 35.088c-20.013-17.106-26.286-32.183-25.295-40.469zm343.15 263.257-1.502 4.229c-17.937 50.523-46.716 85.228-71.151 107.374 2.042-15.476 2.685-32.97 1.793-46.727-.357-5.512-5.104-9.667-10.626-9.333-5.511.357-9.689 5.115-9.332 10.626 1.584 24.428-2.098 53.733-6.517 65.098-27.953 19.394-53.936 28.202-68.775 28.202s-40.822-8.808-68.775-28.201c-4.419-11.365-8.101-40.67-6.517-65.098.357-5.511-3.821-10.269-9.332-10.626-5.516-.348-10.269 3.822-10.626 9.333-.892 13.756-.249 31.25 1.793 46.727-24.435-22.146-53.214-56.851-71.151-107.374l-1.502-4.229c-24.104-67.83-36.203-101.878-6.163-160.087l19.99-38.736c.77.187 1.562.284 2.361.284.473 0 .949-.033 1.422-.102 2.625-.377 4.993-1.782 6.583-3.905l38.634-51.599c3.31-4.421 2.41-10.688-2.011-13.998-2.883-2.158-5.749-4.169-8.595-6.045 14.643-27.667 26.116-38.344 62.786-38.344h102.206c36.645 0 48.139 10.678 62.785 38.344-2.845 1.876-5.711 3.887-8.594 6.045-4.421 3.311-5.321 9.577-2.011 13.998l38.634 51.599c1.589 2.123 3.958 3.528 6.583 3.905.474.068.949.102 1.422.102.799 0 1.591-.096 2.362-.284l19.991 38.736c30.038 58.208 17.939 92.256-6.165 160.086z"/><path d="m374.999 216.029c0-.036.001-.071.002-.107 1.269-105.342-38.144-130.728-57.084-142.928-14.277-9.195-26.045-5.52-37.426-1.963-7.192 2.247-14.628 4.57-24.49 4.57s-17.298-2.323-24.49-4.57c-11.382-3.557-23.15-7.234-37.426 1.963-18.941 12.2-58.354 37.586-57.084 142.928 0 .036.001.071.002.107.188 8.291 3.11 15.496 7.46 22.077-7.961 26.151-11.278 48.271-10.114 67.551.321 5.309 4.725 9.397 9.973 9.397.203 0 .407-.006.612-.019 5.513-.333 9.712-5.071 9.379-10.584-.827-13.693 1.146-29.912 5.862-48.347 1.142 1.119 2.289 2.231 3.433 3.34 9.412 9.122 19.122 18.551 22.15 28.857 1.589 14.957 7.036 27.922 14.298 35.853-2.208 13.902.091 25.253 6.883 33.78 9.094 11.418 25.143 16.968 49.063 16.968 23.911 0 39.956-5.546 49.052-16.954 6.8-8.53 9.102-19.884 6.893-33.792 7.263-7.931 12.71-20.897 14.299-35.854 3.029-10.306 12.738-19.735 22.15-28.857 1.144-1.109 2.292-2.221 3.433-3.34 4.716 18.435 6.689 34.655 5.862 48.347-.333 5.513 3.866 10.251 9.379 10.584.205.013.41.019.612.019 5.248 0 9.652-4.09 9.973-9.397 1.164-19.28-2.153-41.4-10.114-67.551 4.347-6.582 7.269-13.787 7.458-22.078zm-85.585 129.45c-4.915 6.165-16.469 9.423-33.414 9.423-16.95 0-28.506-3.26-33.418-9.428-2.505-3.145-3.612-7.482-3.342-13.128 17.299-.685 29.115-7.937 36.76-14.358 7.645 6.421 19.43 13.662 36.76 14.347.272 5.656-.837 9.997-3.346 13.144zm45.06-100.395c-2.565 2.486-5.208 5.053-7.809 7.723-2.426-26.799-11.202-41.902-17.594-52.88-3.868-6.644-5.871-10.253-5.53-13.321 1.007-9.063 3.194-9.632 14.639-11.125 1.184-.154 2.377-.311 3.569-.485 5.465-.8 9.247-5.878 8.447-11.343s-5.884-9.255-11.342-8.446c-1.09.159-2.18.301-3.262.442-10.905 1.423-29.158 3.805-31.929 28.748-1.086 9.776 3.388 17.46 8.124 25.594 7.888 13.547 18.691 32.101 14.657 75.383-1.492 16.012-8.332 25.543-11.106 27.03-14.604-.034-23.541-6.826-29.338-12.306v-20.028c4.101-.482 8.169-1.25 12.166-2.32 5.335-1.429 8.502-6.912 7.073-12.247-1.428-5.335-6.912-8.502-12.246-7.073-11.088 2.969-22.902 2.969-33.987 0-5.331-1.423-10.817 1.739-12.246 7.073-1.429 5.335 1.738 10.818 7.073 12.247 3.997 1.07 8.065 1.837 12.167 2.32v20.028c-5.797 5.481-14.733 12.272-29.339 12.306-2.774-1.487-9.614-11.019-11.106-27.03-4.034-43.282 6.769-61.836 14.657-75.383 4.736-8.134 9.21-15.817 8.124-25.594-2.771-24.943-21.024-27.325-31.93-28.748-1.082-.142-2.172-.283-3.262-.442-5.461-.805-10.543 2.982-11.342 8.446-.8 5.465 2.982 10.543 8.447 11.343 1.192.175 2.385.331 3.569.485 11.446 1.493 13.633 2.062 14.64 11.125.341 3.068-1.662 6.678-5.53 13.321-6.392 10.977-15.168 26.08-17.594 52.879-2.602-2.67-5.244-5.237-7.809-7.723-10.427-10.105-20.276-19.651-20.528-29.464-1.12-94.22 31.999-115.559 47.917-125.812 6.101-3.931 10.065-2.988 20.632.313 7.815 2.441 17.542 5.48 30.455 5.48s22.639-3.039 30.454-5.48c10.566-3.301 14.531-4.241 20.632-.313 15.917 10.252 49.036 31.591 47.917 125.812-.254 9.814-10.103 19.36-20.53 29.465z"/><path d="m145.588 340.194h-.007c-5.523 0-9.996 4.478-9.996 10s4.48 10 10.003 10 10-4.478 10-10-4.477-10-10-10z"/></g></g></svg>